<svg xmlns="http://www.w3.org/2000/svg" viewBox="0 0 56 56" stroke-width="0">
    <path d="M28,0A28,28,0,1,1,0,28,28,28,0,0,1,28,0" fill="#000000"/>
    <path
        d="M28.022,43.652a4,4,0,0,1-2.836-1.042,3.326,3.326,0,0,1-1.118-2.525A3.218,3.218,0,0,1,25.2,37.55a4.137,4.137,0,0,1,2.826-.988,4.015,4.015,0,0,1,2.814,1,3.271,3.271,0,0,1,1.1,2.524,3.342,3.342,0,0,1-1.085,2.557,3.983,3.983,0,0,1-2.825,1.01m3.523-31.3-.838,21.227h-5.5l-.8-21.227Z"
        fill="#fff"
        data-no-fill="true"
    />
</svg>
