<svg xmlns="http://www.w3.org/2000/svg" viewBox="0 0 20 20" stroke-width="0">
    <g>
        <path
            d="M 8.109375 2.921875 C 7.734375 3.023438 7.429688 3.105469 7.425781 3.109375 C 7.425781 3.113281 7.417969 3.425781 7.410156 3.804688 C 7.40625 4.183594 7.398438 4.554688 7.394531 4.628906 L 7.386719 4.761719 L 7.316406 4.796875 C 7.210938 4.851562 7.011719 4.964844 6.886719 5.042969 L 6.777344 5.109375 L 6.640625 5.035156 C 6.566406 4.996094 6.242188 4.816406 5.921875 4.636719 L 5.335938 4.3125 L 4.832031 4.8125 L 4.328125 5.316406 L 4.726562 6.027344 C 4.941406 6.421875 5.121094 6.746094 5.121094 6.75 C 5.121094 6.757812 5.101562 6.785156 5.082031 6.816406 C 5.019531 6.910156 4.898438 7.117188 4.824219 7.25 L 4.761719 7.378906 L 4.265625 7.386719 C 3.996094 7.390625 3.628906 7.394531 3.449219 7.398438 L 3.128906 7.40625 L 2.945312 8.089844 C 2.84375 8.464844 2.765625 8.777344 2.769531 8.78125 C 2.773438 8.785156 3.082031 8.972656 3.460938 9.199219 L 4.144531 9.609375 L 4.144531 10.355469 L 3.464844 10.761719 C 3.089844 10.988281 2.78125 11.175781 2.773438 11.179688 C 2.765625 11.183594 2.808594 11.367188 2.945312 11.867188 C 3.046875 12.242188 3.128906 12.550781 3.132812 12.554688 C 3.132812 12.554688 3.441406 12.5625 3.820312 12.570312 C 4.195312 12.574219 4.558594 12.582031 4.628906 12.585938 L 4.75 12.59375 L 4.820312 12.726562 C 4.882812 12.851562 5.039062 13.117188 5.09375 13.199219 L 5.117188 13.230469 L 4.730469 13.933594 C 4.515625 14.316406 4.339844 14.636719 4.339844 14.640625 C 4.339844 14.640625 4.566406 14.871094 4.839844 15.144531 L 5.34375 15.648438 L 5.648438 15.476562 C 5.816406 15.382812 6.132812 15.210938 6.351562 15.089844 L 6.75 14.867188 L 6.867188 14.941406 C 7.007812 15.03125 7.179688 15.128906 7.308594 15.195312 L 7.398438 15.238281 L 7.402344 15.398438 C 7.402344 15.875 7.425781 16.839844 7.433594 16.847656 C 7.445312 16.859375 8.742188 17.210938 8.78125 17.214844 C 8.796875 17.214844 8.890625 17.066406 9.214844 16.53125 L 9.625 15.847656 L 10.003906 15.84375 L 10.382812 15.84375 L 10.792969 16.53125 C 11.019531 16.90625 11.203125 17.214844 11.203125 17.21875 C 11.207031 17.222656 12.5625 16.859375 12.570312 16.851562 C 12.574219 16.847656 12.585938 16.5625 12.589844 16.21875 C 12.59375 15.875 12.601562 15.511719 12.605469 15.414062 L 12.613281 15.230469 L 12.730469 15.167969 C 12.847656 15.105469 13.117188 14.945312 13.199219 14.890625 L 13.242188 14.859375 L 13.324219 14.90625 C 13.367188 14.929688 13.6875 15.105469 14.035156 15.300781 L 14.664062 15.648438 L 15.167969 15.144531 L 15.671875 14.644531 L 15.277344 13.933594 L 14.882812 13.21875 L 14.96875 13.078125 C 15.042969 12.957031 15.132812 12.800781 15.222656 12.625 L 15.246094 12.585938 L 15.929688 12.574219 C 16.308594 12.566406 16.671875 12.558594 16.742188 12.558594 L 16.871094 12.554688 L 17.050781 11.894531 C 17.148438 11.53125 17.230469 11.222656 17.234375 11.210938 C 17.238281 11.183594 17.21875 11.171875 16.542969 10.765625 L 15.84375 10.347656 L 15.84375 9.613281 L 16.542969 9.195312 C 17.0625 8.882812 17.238281 8.773438 17.234375 8.761719 C 17.234375 8.753906 17.148438 8.445312 17.050781 8.078125 C 16.953125 7.710938 16.871094 7.40625 16.867188 7.40625 C 16.867188 7.402344 16.503906 7.398438 16.066406 7.390625 C 15.625 7.382812 15.253906 7.378906 15.242188 7.375 C 15.226562 7.371094 15.210938 7.347656 15.183594 7.296875 C 15.128906 7.1875 15.027344 7.007812 14.941406 6.878906 L 14.867188 6.757812 L 15.265625 6.046875 C 15.480469 5.652344 15.660156 5.328125 15.660156 5.324219 C 15.660156 5.3125 14.667969 4.320312 14.65625 4.320312 C 14.652344 4.320312 14.339844 4.492188 13.964844 4.699219 C 13.585938 4.910156 13.261719 5.089844 13.242188 5.097656 C 13.214844 5.113281 13.210938 5.109375 13.125 5.054688 C 13.011719 4.980469 12.800781 4.859375 12.6875 4.804688 L 12.601562 4.761719 L 12.601562 4.652344 C 12.601562 4.527344 12.578125 3.117188 12.574219 3.113281 C 12.574219 3.113281 12.265625 3.027344 11.890625 2.925781 L 11.203125 2.742188 L 11.183594 2.777344 C 11.171875 2.800781 10.980469 3.117188 10.757812 3.484375 L 10.355469 4.152344 L 9.644531 4.152344 L 9.21875 3.445312 C 8.984375 3.058594 8.792969 2.738281 8.789062 2.742188 C 8.785156 2.742188 8.480469 2.824219 8.109375 2.921875 Z M 10.429688 6.453125 C 11.214844 6.558594 11.917969 6.890625 12.46875 7.425781 C 13.066406 8.003906 13.433594 8.75 13.535156 9.589844 C 13.558594 9.789062 13.558594 10.171875 13.535156 10.371094 C 13.390625 11.589844 12.679688 12.609375 11.601562 13.152344 C 10.941406 13.488281 10.222656 13.605469 9.496094 13.5 C 8.0625 13.292969 6.90625 12.246094 6.550781 10.835938 C 6.519531 10.710938 6.492188 10.554688 6.46875 10.390625 C 6.449219 10.242188 6.449219 9.699219 6.472656 9.539062 C 6.53125 9.125 6.636719 8.777344 6.816406 8.414062 C 7.140625 7.753906 7.636719 7.230469 8.292969 6.867188 C 8.683594 6.652344 9.183594 6.492188 9.613281 6.449219 C 9.675781 6.445312 9.738281 6.4375 9.753906 6.4375 C 9.828125 6.425781 10.3125 6.4375 10.429688 6.453125 Z M 10.429688 6.453125 "/>
    </g>
</svg>
