<svg id="Copy" viewBox="0 0 32 32" version="1.1" xmlns="http://www.w3.org/2000/svg" stroke-width="0">
    <title>Page 1</title>
    <g id="Page-1" stroke="none" stroke-width="1" fill="none">
        <g id="Custom-Preset" stroke="#979797" stroke-width="2">
            <path
                d="M19,1 C20.5179103,1 21.9231001,1.48291294 23.0698862,2.30397805 C24.248092,3.14753879 25.1541416,4.34729759 25.6295529,5.74622619 C25.6836112,5.90529626 25.7316854,6.065717 25.773964,6.22719957 C25.9353623,6.26928712 26.0957337,6.31731543 26.2547531,6.37132881 C27.6532352,6.84634503 28.8527255,7.75218623 29.6961392,8.93023803 C30.5171012,10.0769299 31,11.4821068 31,13 L31,13 L31,24 C31,25.9329966 30.2164983,27.6829966 28.9497475,28.9497475 C27.6829966,30.2164983 25.9329966,31 24,31 L24,31 L13,31 C11.4820897,31 10.0768999,30.5170871 8.93011381,29.696022 C7.75190798,28.8524612 6.84585845,27.6527024 6.37044712,26.2537738 C6.31638881,26.0947037 6.26831463,25.934283 6.22603598,25.7728004 C6.06463766,25.7307129 5.90426625,25.6826846 5.74524695,25.6286712 C4.34676477,25.153655 3.14727449,24.2478138 2.30386075,23.069762 C1.48289882,21.9230701 1,20.5178932 1,19 L1,19 L1,8 C1,6.06700338 1.78350169,4.31700338 3.05025253,3.05025253 C4.31700338,1.78350169 6.06700338,1 8,1 L8,1 Z"
                id="Combined-Shape" data-no-fill="true"></path>
            <rect id="Rectangle" x="6" y="6" width="25" height="25" rx="8" data-no-fill="true"></rect>
            <line x1="11.0916421" y1="12.5" x2="26.2223861" y2="12.5" id="Path" stroke-linecap="round"></line>
            <line x1="11.0916421" y1="18.5" x2="26.2223861" y2="18.5" id="Path" stroke-linecap="round"></line>
            <line x1="11.0916421" y1="24.5" x2="26.2223861" y2="24.5" id="Path" stroke-linecap="round"></line>
        </g>
    </g>
</svg>