<svg id="Bell" xmlns="http://www.w3.org/2000/svg" viewBox="0 0 24 24" stroke-width="0">
    <g fill="none" fill-rule="evenodd">
        <path fill="#000"
              d="M12 2.25c3.22 0 5.908 2.455 6.2 5.662l.446 4.91c.04.432.299.812.686 1.005l.003.002c.867.434 1.415 1.32 1.415 2.289v.382c0 1.243-1.007 2.25-2.25 2.25h-3.75v.5c0 1.463-1.142 2.658-2.582 2.745L12 22c-1.519 0-2.75-1.231-2.75-2.75v-.5H5.5c-1.243 0-2.25-1.007-2.25-2.25v-.382c0-.97.548-1.855 1.415-2.289l.003-.002c.387-.193.647-.573.686-1.004L5.8 7.912C6.092 4.705 8.78 2.25 12 2.25zm1.25 16.5h-2.5v.5c0 .647.492 1.18 1.122 1.244L12 20.5c.69 0 1.25-.56 1.25-1.25v-.5zM12 3.75c-2.444 0-4.485 1.864-4.706 4.297l-.446 4.911c-.086.949-.657 1.785-1.51 2.211-.361.181-.588.548-.588.949v.382c0 .414.336.75.75.75h13c.414 0 .75-.336.75-.75v-.382c0-.401-.227-.768-.585-.947-.856-.428-1.427-1.264-1.513-2.213l-.446-4.91C16.485 5.613 14.444 3.75 12 3.75z"/>
    </g>
</svg>
