<svg class="svg-icon" viewBox="0 0 1024 1024" version="1.1" xmlns="http://www.w3.org/2000/svg">
    <path
        d="M210.71872 291.04128l63.52896 0 29.57312 520.99072c0.59392 10.83392 9.58464 19.31264 20.43904 19.31264l387.74784 0c10.8544 0 19.84512-8.4992 20.43904-19.33312l29.10208-520.97024 63.56992 0c11.32544 0 20.48-9.17504 20.48-20.48s-9.15456-20.48-20.48-20.48l-76.61568 0c-1.1264 0-2.10944 0.47104-3.19488 0.63488-1.06496-0.16384-2.048-0.63488-3.13344-0.63488l-107.43808 0L634.73664 196.48512c0-11.30496-9.15456-20.48-20.48-20.48l-192.69632 0c-11.32544 0-20.48 9.17504-20.48 20.48l0 53.59616-107.47904 0c-0.94208 0-1.78176 0.43008-2.70336 0.55296-0.94208-0.14336-1.78176-0.55296-2.7648-0.55296l-77.39392 0c-11.32544 0-20.48 9.17504-20.48 20.48S199.39328 291.04128 210.71872 291.04128zM442.04032 216.96512l151.73632 0 0 33.11616-151.73632 0L442.04032 216.96512zM720.52736 291.04128 692.6336 790.40512 343.61344 790.40512l-28.34432-499.36384L720.52736 291.04128z"/>
    <path
        d="M416.50176 752.00512c0.4096 0 0.77824 0 1.18784-0.02048 11.30496-0.63488 19.92704-10.32192 19.27168-21.6064l-21.54496-379.5968c-0.63488-11.30496-10.58816-19.80416-21.6064-19.29216-11.30496 0.63488-19.92704 10.32192-19.27168 21.6064l21.54496 379.5968C396.6976 743.58784 405.72928 752.00512 416.50176 752.00512z"/>
    <path
        d="M617.41056 751.98464c0.4096 0.02048 0.77824 0.02048 1.18784 0.02048 10.77248 0 19.80416-8.41728 20.41856-19.31264l21.54496-379.5968c0.63488-11.28448-7.9872-20.97152-19.27168-21.6064-11.12064-0.47104-20.95104 7.9872-21.6064 19.29216l-21.54496 379.5968C597.504 741.66272 606.12608 751.34976 617.41056 751.98464z"/>
    <path
        d="M517.91872 752.00512c11.32544 0 20.48-9.17504 20.48-20.48L538.39872 351.92832c0-11.30496-9.15456-20.48-20.48-20.48s-20.48 9.17504-20.48 20.48l0 379.5968C497.43872 742.83008 506.59328 752.00512 517.91872 752.00512z"/>
</svg>