<?xml version="1.0" standalone="no"?>
<!DOCTYPE svg PUBLIC "-//W3C//DTD SVG 20010904//EN"
 "http://www.w3.org/TR/2001/REC-SVG-20010904/DTD/svg10.dtd">
<svg version="1.0" xmlns="http://www.w3.org/2000/svg"
 width="2000.000000pt" height="2000.000000pt" viewBox="0 0 2000.000000 2000.000000"
 preserveAspectRatio="xMidYMid meet">

<g transform="translate(0.000000,2000.000000) scale(0.100000,-0.100000)"
fill="#000000" stroke="none">
<path d="M5246 19775 c-185 -47 -338 -203 -382 -391 -29 -126 -5 -277 64 -389
13 -22 2038 -2055 4500 -4517 l4477 -4478 -4486 -4487 c-3905 -3907 -4490
-4495 -4512 -4543 -101 -213 -63 -444 98 -605 161 -161 391 -198 603 -98 50
23 596 565 4746 4712 2655 2654 4702 4708 4721 4736 101 157 111 354 24 528
-28 56 -475 506 -4712 4746 -2650 2651 -4704 4697 -4732 4716 -115 74 -279
103 -409 70z"/>
</g>
</svg>
