<svg xmlns="http://www.w3.org/2000/svg" width="12" height="15" viewBox="0 0 12 15">
    <g fill="#FFF" fill-rule="evenodd">
        <path d="M.84 7.35c0-.695.565-1.26 1.26-1.26h7.14c.695 0 1.26.565 1.26 1.26v4.62c0 .695-.565 1.26-1.26 1.26H2.1c-.695 0-1.26-.565-1.26-1.26V7.35zm2.1-3.815C2.94 2.049 4.17.84 5.68.84h.07C7.236.84 8.4 2.024 8.4 3.535V5.25H2.94V3.535zM2.1 14.07h7.14c1.158 0 2.1-.942 2.1-2.1V7.35c0-1.158-.942-2.1-2.1-2.1V3.535C9.24 1.585 7.674 0 5.75 0h-.07C3.706 0 2.1 1.586 2.1 3.535V5.25c-1.158 0-2.1.942-2.1 2.1v4.62c0 1.158.942 2.1 2.1 2.1z"/>
        <path d="M5.04 10.27v.886c0 .334.27.604.604.604h.052c.334 0 .604-.27.604-.604v-.915a1.284 1.284 0 0 0-.655-2.392 1.286 1.286 0 0 0-.605 2.42"/>
    </g>
</svg>
