<svg xmlns="http://www.w3.org/2000/svg" width="24" height="24" viewBox="0 0 24 24">
    <path fill="#8392A6" fill-rule="evenodd" d="M15.473 13.01c-.137-.208-.286-.413-.428-.613-.075-.102-.149-.205-.221-.308-.392-.558-.804-1.118-1.202-1.659l-.105-.143c-.053-.071-.104-.144-.156-.216l-.116-.164c-.27-.403-.608-.907-1.246-.907-.616 0-.906.417-1.24.895l-.214.296c-.204.281-.41.563-.609.847-.214.303-.442.607-.662.902-.254.34-.517.69-.764 1.048-.033.048-.072.098-.11.15-.194.252-.435.566-.396.962.054.53.606.9 1.069.9h5.851c.38 0 .76-.231.968-.589.29-.499-.071-.954-.287-1.225-.05-.064-.099-.125-.132-.175"/>
</svg>
