<svg xmlns="http://www.w3.org/2000/svg" width="6" height="5" viewBox="0 0 6 5">
    <path fill="#828195" fill-rule="evenodd"
          d="M5.605 3.342c-.103-.174-.215-.345-.322-.51a77.877 77.877 0 0 0-1.067-1.64l-.079-.12-.116-.18-.087-.136C3.73.42 3.478 0 2.999 0c-.461 0-.68.347-.93.746l-.16.246c-.153.235-.307.47-.457.707-.16.252-.331.505-.497.751-.19.283-.387.576-.572.873-.025.04-.054.082-.084.125-.145.21-.326.472-.296.802.04.442.455.75.802.75h4.388c.285 0 .57-.193.726-.49.217-.417-.054-.796-.215-1.022-.038-.053-.074-.104-.1-.146"/>
</svg>
