<svg xmlns="http://www.w3.org/2000/svg" width="13" height="14" viewBox="0 0 13 14">
    <path fill="#FFF" fill-rule="evenodd" d="M4.73 6.855a3.985 3.985 0 0 0 3.36.003c.646.586 3.157 3.063 3.36 6.309H1.396c.2-3.205 2.646-5.678 3.333-6.312M3.468 3.614c0-1.533 1.321-2.78 2.945-2.78 1.625 0 2.946 1.247 2.946 2.78 0 1.533-1.321 2.78-2.946 2.78-1.624 0-2.945-1.247-2.945-2.78M.94 14h10.964a.43.43 0 0 0 .441-.417c0-3.592-2.553-6.31-3.491-7.187.847-.664 1.387-1.664 1.387-2.782C10.242 1.621 8.525 0 6.413 0c-2.11 0-3.828 1.621-3.828 3.614 0 1.115.538 2.114 1.382 2.777C3.011 7.3.5 10.021.5 13.583c0 .23.198.417.441.417"/>
</svg>
