<svg xmlns="http://www.w3.org/2000/svg" width="6" height="5" viewBox="0 0 6 5">
    <path fill="#828195" fill-rule="evenodd"
          d="M.395 1.658c.103.174.215.345.322.51l.165.258c.294.465.603.931.902 1.382l.079.12.116.18.087.136c.203.336.456.756.935.756.461 0 .68-.347.93-.746l.16-.246c.153-.235.307-.47.457-.707.16-.252.331-.505.497-.751.19-.283.387-.576.572-.873.025-.04.054-.082.084-.125.145-.21.326-.472.296-.802C5.957.308 5.542 0 5.195 0H.807C.522 0 .237.193.08.49c-.217.417.054.796.215 1.022.038.053.074.104.1.146"/>
</svg>
