<svg xmlns="http://www.w3.org/2000/svg" width="12" height="12" viewBox="0 0 12 12">
    <g fill="none" fill-rule="evenodd">
        <path fill="#00B5FF" d="M0 5.95c0 3.286 2.664 5.95 5.95 5.95s5.95-2.664 5.95-5.95S9.236 0 5.95 0 0 2.664 0 5.95"/>
        <path fill="#FFF" d="M2.106 6.296c.607.42.925.497 1.449 1.379.523.882.615 1.482.753 1.592.138.11.827-.027 1.185-.22.358-.193.372-.3.706-1.082.464-1.085 1.217-2.416 1.796-3.188.579-.772 1.798-1.787 1.853-1.98.055-.193-.524-.282-1.075-.117-.551.166-1.713 1.443-2.414 2.448-.779 1.116-1.055 2.058-1.193 2.03-.138-.027-.407-.589-.793-1.002-.386-.414-.793-.694-1.261-.61-.469.082-1.286.556-1.006.75"/>
    </g>
</svg>
